<svg width="49" height="43" viewBox="0 0 49 43" fill="none" xmlns="http://www.w3.org/2000/svg">
<path fill-rule="evenodd" clip-rule="evenodd" d="M37.5662 11.5769H41.8356C42.9444 11.5768 44.038 11.8373 45.0304 12.3378C46.0228 12.8384 46.8869 13.5654 47.5547 14.4615C48.2226 15.3577 48.6758 16.3986 48.8789 17.5023C49.0819 18.606 49.0292 19.7424 48.7248 20.8219L44.4979 35.8058C43.9123 37.8789 42.6757 39.7025 40.9754 41.0005C39.275 42.2986 37.2033 43.0005 35.0739 43H13.9261C11.7963 43.0003 9.72428 42.2979 8.02385 40.9992C6.32342 39.7005 5.08713 37.8762 4.50212 35.8025L0.275194 20.8219C-0.0291605 19.7424 -0.0818947 18.606 0.121143 17.5023C0.32418 16.3986 0.777446 15.3577 1.44526 14.4615C2.11307 13.5654 2.9772 12.8384 3.96962 12.3378C4.96203 11.8373 6.05565 11.5768 7.16437 11.5769H11.4338V6.61538C11.4338 4.86088 12.1221 3.17823 13.3473 1.9376C14.5725 0.696976 16.2342 0 17.9669 0H31.0331C32.7658 0 34.4275 0.696976 35.6527 1.9376C36.8779 3.17823 37.5662 4.86088 37.5662 6.61538V11.5769ZM16.3336 11.5769V6.61538C16.3336 6.17676 16.5057 5.7561 16.812 5.44594C17.1183 5.13578 17.5337 4.96154 17.9669 4.96154H31.0331C31.4663 4.96154 31.8817 5.13578 32.188 5.44594C32.4943 5.7561 32.6664 6.17676 32.6664 6.61538V11.5769H16.3336ZM35.0739 38.0385H13.9261C12.8615 38.0382 11.8259 37.6869 10.976 37.0376C10.1261 36.3882 9.50819 35.4763 9.21577 34.4397L4.98884 19.4592C4.89284 19.1182 4.87626 18.7593 4.94041 18.4107C5.00456 18.0622 5.14768 17.7335 5.35853 17.4504C5.56938 17.1673 5.8422 16.9376 6.15555 16.7794C6.46889 16.6212 6.81422 16.5387 7.16437 16.5385H41.8356C42.1858 16.5387 42.5311 16.6212 42.8445 16.7794C43.1578 16.9376 43.4306 17.1673 43.6415 17.4504C43.8523 17.7335 43.9954 18.0622 44.0596 18.4107C44.1237 18.7593 44.1072 19.1182 44.0112 19.4592L39.7842 34.443C39.4912 35.479 38.8731 36.3902 38.0232 37.0389C37.1734 37.6876 36.1381 38.0384 35.0739 38.0385ZM20.0803 33.8542C19.4436 33.9828 18.7825 33.8502 18.2423 33.4855C17.7021 33.1208 17.3269 32.5539 17.1992 31.9093L15.566 23.6401C15.4629 23.0054 15.6073 22.3551 15.9686 21.8262C16.33 21.2972 16.8801 20.9311 17.5029 20.805C18.1258 20.6788 18.7726 20.8026 19.3071 21.1501C19.8416 21.4976 20.2219 22.0417 20.3678 22.6676L22.0011 30.9368C22.128 31.5816 21.9971 32.251 21.6369 32.798C21.2768 33.345 20.7169 33.7249 20.0803 33.8542ZM33.434 23.6401C33.5096 23.316 33.5199 22.9799 33.4645 22.6517C33.409 22.3235 33.2889 22.01 33.1112 21.7298C32.9335 21.4496 32.702 21.2085 32.4303 21.0209C32.1587 20.8332 31.8526 20.7028 31.5301 20.6375C31.2077 20.5722 30.8756 20.5733 30.5536 20.6408C30.2315 20.7082 29.9262 20.8406 29.6558 21.03C29.3854 21.2194 29.1554 21.4621 28.9795 21.7434C28.8037 22.0247 28.6856 22.3391 28.6322 22.6676L26.9989 30.9368C26.9234 31.2609 26.913 31.597 26.9685 31.9252C27.024 32.2534 27.1441 32.567 27.3218 32.8471C27.4994 33.1273 27.731 33.3684 28.0026 33.5561C28.2742 33.7437 28.5804 33.8741 28.9028 33.9394C29.2253 34.0047 29.5574 34.0036 29.8794 33.9362C30.2014 33.8687 30.5067 33.7364 30.7772 33.5469C31.0476 33.3575 31.2776 33.1149 31.4534 32.8335C31.6293 32.5522 31.7474 32.2379 31.8008 31.9093L33.434 23.6401Z" fill="#216037"/>
</svg>
