<svg width="32" height="36" viewBox="0 0 32 36" fill="none" xmlns="http://www.w3.org/2000/svg">
<path fill-rule="evenodd" clip-rule="evenodd" d="M4.26859 16.0096C4.26859 12.9689 5.48813 10.0527 7.65892 7.90263C9.82971 5.75251 12.7739 4.54459 15.8439 4.54459C18.9139 4.54459 21.8581 5.75251 24.0289 7.90263C26.1997 10.0527 27.4192 12.9689 27.4192 16.0096C27.4192 20.3934 25.5814 22.9757 23.4135 24.9818C22.4994 25.8284 21.5971 26.5105 20.6355 27.2348L19.7688 27.8933C19.1203 28.3808 18.5011 28.9054 17.9144 29.4643C17.3374 30.0288 16.6441 30.8166 16.1811 31.8397C16.1326 31.9598 16.0551 32.0664 15.9555 32.1501C15.9448 32.1583 15.9327 32.1647 15.9199 32.1689C15.9199 32.1689 15.8961 32.1783 15.8439 32.1783C15.7917 32.1783 15.7703 32.1713 15.7679 32.1713C15.7549 32.1663 15.7428 32.1592 15.7323 32.1501C15.633 32.0671 15.5555 31.9613 15.5067 31.842C15.0823 30.9508 14.4946 30.1454 13.7734 29.4667C13.1867 28.9077 12.5675 28.3831 11.919 27.8957C11.6222 27.6676 11.3349 27.4488 11.0499 27.2372C10.0864 26.532 9.15996 25.7785 8.27424 24.9794C6.10877 22.9781 4.26859 20.3958 4.26859 16.0096ZM31.2776 16.0096C31.2776 24.0058 26.3721 27.7099 22.8959 30.3345C21.3905 31.4751 20.1511 32.4088 19.7023 33.4036C19.0612 34.8241 17.7149 36 15.8439 36C13.9728 36 12.6289 34.8241 11.9855 33.4036C11.5343 32.4088 10.2996 31.4751 8.78949 30.3345C5.31571 27.7099 0.410156 24.0034 0.410156 16.0096C0.410156 11.9553 2.03621 8.06711 4.93059 5.20028C7.82498 2.33346 11.7506 0.7229 15.8439 0.7229C19.9372 0.7229 23.8628 2.33346 26.7572 5.20028C29.6516 8.06711 31.2776 11.9553 31.2776 16.0096ZM19.4055 16.0096C19.4055 16.9453 19.0303 17.8425 18.3623 18.5041C17.6944 19.1657 16.7885 19.5374 15.8439 19.5374C14.8993 19.5374 13.9934 19.1657 13.3254 18.5041C12.6575 17.8425 12.2823 16.9453 12.2823 16.0096C12.2823 15.074 12.6575 14.1768 13.3254 13.5152C13.9934 12.8536 14.8993 12.4819 15.8439 12.4819C16.7885 12.4819 17.6944 12.8536 18.3623 13.5152C19.0303 14.1768 19.4055 15.074 19.4055 16.0096ZM22.9672 16.0096C22.9672 17.8809 22.2167 19.6754 20.8808 20.9986C19.5449 22.3217 17.7331 23.0651 15.8439 23.0651C13.9547 23.0651 12.1429 22.3217 10.807 20.9986C9.47111 19.6754 8.72063 17.8809 8.72063 16.0096C8.72063 14.1384 9.47111 12.3439 10.807 11.0207C12.1429 9.69756 13.9547 8.95423 15.8439 8.95423C17.7331 8.95423 19.5449 9.69756 20.8808 11.0207C22.2167 12.3439 22.9672 14.1384 22.9672 16.0096Z" fill="#216037"/>
</svg>
