<svg width="28" height="28" viewBox="0 0 28 28" fill="none" xmlns="http://www.w3.org/2000/svg">
<path fill-rule="evenodd" clip-rule="evenodd" d="M26.3765 17.8366C25.5566 16.7421 24.4515 15.8941 23.182 15.3854L23.1157 15.3613C22.1946 14.9929 21.1942 14.8677 20.2107 14.9979C19.2273 15.1281 18.2939 15.5093 17.5003 16.1047L16.7771 16.6451C16.5836 16.7898 16.3444 16.8598 16.1035 16.8425C15.8625 16.8252 15.6359 16.7216 15.4651 16.5507L11.676 12.7614C11.5046 12.5905 11.4007 12.3634 11.3833 12.122C11.366 11.8806 11.4364 11.641 11.5815 11.4474L12.124 10.7241C12.7187 9.93096 13.0994 8.99822 13.2296 8.01549C13.3598 7.03276 13.235 6.03306 12.8674 5.11245L12.8412 5.04815C12.3331 3.77728 11.4851 2.6707 10.3902 1.84954L10.0084 1.56223C9.4029 1.10824 8.69633 0.80783 7.94926 0.686756C7.2022 0.565681 6.43693 0.627548 5.71901 0.867054L5.33728 0.993632C4.30703 1.33758 3.37095 1.91657 2.60311 2.68479C1.83527 3.45302 1.25673 4.3894 0.913263 5.41985C0.323893 7.18769 0.250715 9.08691 0.702308 10.8949C1.56436 14.342 3.347 17.4901 5.85965 20.0025L8.22636 22.3693C10.7389 24.8813 13.8868 26.6633 17.3336 27.5248C19.1418 27.9789 21.0404 27.9066 22.8084 27.3159C23.8396 26.9723 24.7766 26.3932 25.5452 25.6246C26.3138 24.856 26.8928 23.9189 27.2364 22.8876L27.363 22.5079C27.6022 21.7898 27.6637 21.0244 27.5423 20.2773C27.4209 19.5302 27.1201 18.8237 26.6658 18.2183L26.3785 17.8366H26.3765ZM8.367 4.54787L7.98527 4.26056C7.81616 4.13395 7.61887 4.05026 7.41031 4.01667C7.20175 3.98307 6.98816 4.00057 6.78785 4.06767L6.40612 4.19425C5.32523 4.5559 4.47739 5.40378 4.11576 6.48472C3.72868 7.6446 3.68059 8.89086 3.97713 10.0771C4.69083 12.9304 6.16653 15.5361 8.24645 17.6156L10.6132 19.9824C12.6926 22.0623 15.2981 23.538 18.1513 24.2519C19.3366 24.5472 20.5823 24.499 21.7415 24.1132C22.8244 23.7516 23.6723 22.9037 24.0319 21.8228L24.1605 21.441C24.2273 21.2406 24.2445 21.0269 24.2105 20.8183C24.1766 20.6097 24.0925 20.4125 23.9656 20.2436L23.6783 19.8618C23.2295 19.2628 22.6249 18.7986 21.9304 18.5197L21.8641 18.4936C21.4808 18.3403 21.0645 18.2882 20.6553 18.3424C20.2461 18.3966 19.8577 18.5552 19.5275 18.803L18.8042 19.3455C17.9608 19.9777 16.9176 20.2845 15.8662 20.2095C14.8148 20.1346 13.8256 19.683 13.0803 18.9376L9.29118 15.1483C8.54527 14.4028 8.09335 13.4133 8.01842 12.3613C7.9435 11.3094 8.25061 10.2658 8.88333 9.42213L9.42579 8.69883C9.92806 8.02776 10.0466 7.14373 9.73519 6.36416L9.70907 6.29987C9.43094 5.60378 8.96663 4.99765 8.367 4.54787Z" fill="#216037"/>
</svg>
