<svg width="37" height="36" viewBox="0 0 37 36" fill="none" xmlns="http://www.w3.org/2000/svg">
<path d="M18.0245 2.31763C18.1741 1.85697 18.8259 1.85697 18.9755 2.31763L21.9005 11.3197C22.369 12.7617 23.7129 13.7381 25.2292 13.7381H34.6945C35.1788 13.7381 35.3802 14.3579 34.9884 14.6426L27.3308 20.2062C26.1041 21.0974 25.5908 22.6772 26.0593 24.1193L28.9843 33.1213C29.1339 33.582 28.6067 33.965 28.2148 33.6803L20.5572 28.1168C19.3305 27.2255 17.6695 27.2255 16.4428 28.1168L8.78516 33.6803C8.39331 33.965 7.86607 33.582 8.01575 33.1213L10.9407 24.1193C11.4092 22.6772 10.8959 21.0974 9.66923 20.2062L2.01164 14.6426C1.61979 14.3579 1.82117 13.7381 2.30554 13.7381H11.7708C13.2871 13.7381 14.631 12.7617 15.0995 11.3197L18.0245 2.31763Z" fill="#C2D59D" stroke="#216037" stroke-width="3"/>
</svg>
