<svg width="78" height="68" viewBox="0 0 78 68" fill="none" xmlns="http://www.w3.org/2000/svg">
<path d="M29.212 52.415C29.9223 52.8946 30.7902 53.0684 31.6256 52.8999L29.212 52.415ZM29.212 52.415C28.5012 51.9352 28.0053 51.1876 27.8364 50.3349M29.212 52.415L27.8364 50.3349M27.8364 50.3349L25.2559 37.2697C25.1228 36.4333 25.3144 35.5778 25.7894 34.8825C26.2663 34.1845 26.9906 33.7035 27.8081 33.5379C28.6255 33.3724 29.4749 33.5345 30.1779 33.9915C30.8781 34.4468 31.3794 35.1602 31.5741 35.9838L34.1547 49.049C34.3226 49.902 34.1491 50.787 33.6736 51.5092C33.1985 52.2309 32.4616 52.7299 31.6263 52.8998L27.8364 50.3349ZM58.7571 18.3077V18.9577H59.4071H66.1587C67.8101 18.9575 69.4393 19.3454 70.9181 20.0913C72.397 20.8373 73.6855 21.921 74.6816 23.2578C75.6778 24.5947 76.3544 26.148 76.6575 27.7957C76.9606 29.4433 76.8819 31.1398 76.4276 32.7512C76.4276 32.7513 76.4276 32.7513 76.4276 32.7513L69.7432 56.4464C68.8551 59.5905 66.9801 62.3546 64.4038 64.3214C61.8276 66.288 58.69 67.3507 55.4658 67.35H55.4656H22.0227C18.7978 67.3504 15.6597 66.287 13.0834 64.3194C10.507 62.3517 8.63244 59.5864 7.74522 56.4414L7.74521 56.4413L1.0608 32.7513C1.06079 32.7513 1.06078 32.7512 1.06076 32.7512C0.606478 31.1397 0.527746 29.4433 0.830847 27.7957C1.13395 26.148 1.81052 24.5947 2.80673 23.2578C3.80291 21.921 5.09138 20.8373 6.57026 20.0913C8.04909 19.3454 9.67827 18.9575 11.3296 18.9577H11.3297H18.0813H18.7313V18.3077V10.4615C18.7313 7.85675 19.7533 5.36026 21.5698 3.52085C23.3861 1.68171 25.8477 0.65 28.4127 0.65H49.0756C51.6407 0.65 54.1023 1.68171 55.9186 3.52085C57.7351 5.36026 58.7571 7.85675 58.7571 10.4615V18.3077ZM25.1799 18.3077V18.9577H25.8299H51.6585H52.3085V18.3077V10.4615C52.3085 9.59811 51.9698 8.76843 51.3645 8.15545C50.7588 7.54219 49.9357 7.19615 49.0756 7.19615H28.4127C27.5527 7.19615 26.7295 7.54219 26.1239 8.15545C25.5185 8.76843 25.1799 9.59811 25.1799 10.4615V18.3077ZM22.0226 60.8038H22.0227H55.4656C57.2918 60.8038 59.0675 60.2017 60.5241 59.0898C61.9806 57.978 63.0387 56.4174 63.5401 54.6449L63.5402 54.6445L70.2246 30.9491L70.2247 30.9488C70.4035 30.3139 70.4343 29.6459 70.3149 28.997C70.1955 28.3482 69.9289 27.7356 69.5357 27.2077C69.1424 26.6797 68.633 26.2506 68.047 25.9546C67.461 25.6587 66.8147 25.5043 66.1591 25.5038H66.1587H11.3297H11.3293C10.6736 25.5043 10.0274 25.6587 9.44135 25.9546C8.85538 26.2506 8.34595 26.6797 7.95268 27.2077C7.55942 27.7356 7.29289 28.3482 7.17347 28.997C7.05406 29.6459 7.0849 30.3139 7.26365 30.9488L7.26375 30.9491L13.9482 54.6392C13.9482 54.6393 13.9482 54.6393 13.9482 54.6393C14.4485 56.4129 15.5062 57.9747 16.9627 59.0875C18.4195 60.2005 20.1957 60.8035 22.0226 60.8038ZM52.2394 37.2367L52.2369 37.2475L52.2348 37.2584L49.6519 50.3353L49.6497 50.3461L49.648 50.357C49.5774 50.7916 49.4212 51.2069 49.1891 51.5783C48.957 51.9496 48.6538 52.2693 48.2979 52.5186C47.9421 52.7679 47.5407 52.9417 47.1179 53.0303C46.6952 53.1188 46.2592 53.1202 45.8358 53.0345C45.4125 52.9488 45.0101 52.7775 44.6526 52.5306C44.2952 52.2837 43.99 51.966 43.7555 51.5962C43.521 51.2264 43.3621 50.8122 43.2888 50.3781C43.2154 49.9441 43.2291 49.4995 43.329 49.0709L43.3315 49.0602L43.3336 49.0493L45.9165 35.9724L45.9186 35.9616L45.9204 35.9507C45.991 35.5161 46.1472 35.1008 46.3793 34.7294C46.6114 34.3581 46.9146 34.0384 47.2705 33.7891C47.6263 33.5398 48.0277 33.3659 48.4505 33.2774C48.8732 33.1889 49.3092 33.1875 49.7326 33.2732C50.1559 33.3589 50.5583 33.5302 50.9158 33.7771C51.2732 34.024 51.5784 34.3417 51.8129 34.7115C52.0474 35.0813 52.2063 35.4955 52.2796 35.9296C52.353 36.3636 52.3393 36.8082 52.2394 37.2367Z" fill="#216037" stroke="#C2D59D" stroke-width="1.3"/>
</svg>
