<svg width="84" height="151" viewBox="0 0 84 151" fill="none" xmlns="http://www.w3.org/2000/svg">
<path d="M41.8413 2.48838C41.8616 2.29816 42.1384 2.29816 42.1587 2.48838L46.6062 44.2052C47.8407 55.7763 52.6824 64.8213 58.8727 67.1208L81.598 75.5763C81.7366 75.6279 81.7366 75.8239 81.598 75.8754L58.8727 84.3309C52.6788 86.6371 47.8371 95.6821 46.6062 107.247L42.1587 148.963C42.1384 149.154 41.8616 149.154 41.8413 148.963L37.3938 107.247C36.1593 95.6754 31.3176 86.6305 25.1273 84.3309L2.40197 75.8754C2.26339 75.8239 2.26339 75.6279 2.40197 75.5763L25.1273 67.1208C31.3212 64.8146 36.1629 55.7696 37.3938 44.2052L41.8413 2.48838Z" fill="#C2D59D" stroke="#216037" stroke-width="3"/>
</svg>
