<svg width="150" height="51" viewBox="0 0 150 51" fill="none" xmlns="http://www.w3.org/2000/svg">
<path d="M1.49729 50.1016C1.40515 50.1016 1.35908 49.9634 1.35908 49.687C1.35908 49.4106 1.40515 49.2724 1.49729 49.2724C3.2019 49.2724 4.30759 48.9729 4.81436 48.374C5.36721 47.729 5.64363 46.439 5.64363 44.5041L5.71274 8.98374C5.71274 7.3252 5.55149 6.1504 5.229 5.45935C4.9065 4.72222 4.35366 4.35366 3.57046 4.35366C2.78726 4.35366 1.79675 4.65311 0.598916 5.25203H0.52981C0.345528 5.25203 0.184282 5.13685 0.0460705 4.9065C-0.0460705 4.63008 0 4.46883 0.184282 4.42276L9.44444 0.0691048L9.72087 0C9.85908 0 10.0203 0.0691048 10.2046 0.207314C10.435 0.345527 10.5501 0.506774 10.5501 0.691056V44.5041C10.5501 46.439 10.8035 47.729 11.3103 48.374C11.8631 48.9729 12.9688 49.2724 14.6274 49.2724C14.8117 49.2724 14.9038 49.4106 14.9038 49.687C14.9038 49.9634 14.8117 50.1016 14.6274 50.1016C13.5677 50.1016 12.7154 50.0786 12.0705 50.0325L8.06233 49.9634L4.19241 50.0325C3.54743 50.0786 2.64905 50.1016 1.49729 50.1016Z" fill="#216037"/>
<path d="M20.2762 50.1016C20.138 50.1016 20.0689 49.9634 20.0689 49.687C20.0689 49.4106 20.138 49.2724 20.2762 49.2724C21.9808 49.2724 23.0865 48.9729 23.5933 48.374C24.1461 47.729 24.4226 46.439 24.4226 44.5041V31.7195C24.4226 30.107 24.2613 28.9553 23.9388 28.2642C23.6163 27.5271 23.0404 27.1585 22.2112 27.1585C21.4741 27.1585 20.4835 27.458 19.2396 28.0569H19.1705C18.9862 28.0569 18.848 27.9417 18.7559 27.7114C18.6638 27.435 18.7098 27.2737 18.8941 27.2276L28.2925 22.874L28.5689 22.8049C28.7071 22.8049 28.8453 22.874 28.9835 23.0122C29.1678 23.1504 29.26 23.3117 29.26 23.4959C29.26 23.8184 29.2369 24.7398 29.1909 26.2602C29.1448 27.7805 29.1217 29.5772 29.1217 31.6504V44.5041C29.1217 46.439 29.3751 47.729 29.8819 48.374C30.4348 48.9729 31.5635 49.2724 33.2681 49.2724C33.4063 49.2724 33.4754 49.4106 33.4754 49.687C33.4754 49.9634 33.4063 50.1016 33.2681 50.1016C32.1624 50.1016 31.264 50.0786 30.573 50.0325L26.7722 49.9634L22.9713 50.0325C22.2803 50.0786 21.3819 50.1016 20.2762 50.1016Z" fill="#216037"/>
<path d="M48.4389 50.9309C46.504 50.9309 44.8685 50.4932 43.5324 49.6179C42.2425 48.6965 41.5975 47.1762 41.5975 45.0569V29.0935C41.5975 27.481 41.3671 26.4444 40.9064 25.9837C40.4918 25.523 39.5243 25.2927 38.004 25.2927C37.8658 25.2927 37.7967 25.1084 37.7967 24.7398C37.7967 24.4173 37.8658 24.2561 38.004 24.2561C40.0311 24.21 41.6666 23.7263 42.9105 22.8049C44.1544 21.8374 44.9606 20.5244 45.3292 18.8659C45.3753 18.7276 45.5595 18.6585 45.882 18.6585C46.2045 18.6585 46.3658 18.7276 46.3658 18.8659V42.7073C46.3658 46.3469 48.1395 48.1667 51.6869 48.1667C53.6679 48.1667 55.4877 47.5217 57.1463 46.2317C57.1923 46.1856 57.2614 46.1626 57.3536 46.1626C57.4918 46.1626 57.607 46.2547 57.6991 46.439C57.7912 46.6233 57.7682 46.7615 57.63 46.8536C55.9254 48.2818 54.359 49.3184 52.9308 49.9634C51.5026 50.6084 50.0053 50.9309 48.4389 50.9309ZM55.5568 26.813C52.4701 26.1219 48.8996 25.7764 44.8454 25.7764V24.187C47.7479 24.187 51.3875 23.9566 55.7641 23.4959C55.9024 23.4959 56.0175 23.6572 56.1097 23.9797C56.2018 24.3022 56.2479 24.6707 56.2479 25.0854C56.2479 25.5 56.1788 25.9146 56.0406 26.3293C55.9024 26.6978 55.7411 26.8591 55.5568 26.813Z" fill="#216037"/>
<path d="M74.968 51C72.2498 51 69.8541 50.355 67.781 49.065C65.7078 47.729 64.0953 45.9553 62.9436 43.7439C61.8379 41.4864 61.285 39.0447 61.285 36.4187C61.285 33.4241 62.0222 30.8902 63.4964 28.8171C64.9707 26.6978 66.8596 25.1314 69.1631 24.1179C71.4666 23.0583 73.8162 22.5285 76.2119 22.5285C78.93 22.5285 81.3257 23.1965 83.3989 24.5325C85.472 25.8686 87.0615 27.6423 88.1672 29.8537C89.2728 32.019 89.8257 34.3225 89.8257 36.7642C89.8257 39.5745 89.1346 42.0623 87.7525 44.2276C86.4165 46.393 84.6197 48.0745 82.3623 49.2724C80.1048 50.4241 77.6401 51 74.968 51ZM76.972 49.687C79.2756 49.687 81.0493 48.7886 82.2932 46.9919C83.5371 45.1951 84.159 42.477 84.159 38.8374C84.159 35.8428 83.6983 33.2168 82.7769 30.9593C81.9016 28.7019 80.6807 26.9743 79.1143 25.7764C77.5479 24.5325 75.7972 23.9106 73.8623 23.9106C71.6048 23.9106 69.8541 24.7859 68.6102 26.5366C67.4124 28.2412 66.8135 30.7751 66.8135 34.1382C66.8135 37.0406 67.2512 39.6897 68.1265 42.0854C69.0018 44.435 70.1997 46.3008 71.72 47.6829C73.2864 49.019 75.0371 49.687 76.972 49.687Z" fill="#216037"/>
<path d="M105.127 50.9309C103.192 50.9309 101.557 50.4932 100.221 49.6179C98.9307 48.6965 98.2857 47.1762 98.2857 45.0569V29.0935C98.2857 27.481 98.0554 26.4444 97.5947 25.9837C97.1801 25.523 96.2126 25.2927 94.6922 25.2927C94.554 25.2927 94.4849 25.1084 94.4849 24.7398C94.4849 24.4173 94.554 24.2561 94.6922 24.2561C96.7193 24.21 98.3548 23.7263 99.5987 22.8049C100.843 21.8374 101.649 20.5244 102.017 18.8659C102.064 18.7276 102.248 18.6585 102.57 18.6585C102.893 18.6585 103.054 18.7276 103.054 18.8659V42.7073C103.054 46.3469 104.828 48.1667 108.375 48.1667C110.356 48.1667 112.176 47.5217 113.835 46.2317C113.881 46.1856 113.95 46.1626 114.042 46.1626C114.18 46.1626 114.295 46.2547 114.387 46.439C114.48 46.6233 114.456 46.7615 114.318 46.8536C112.614 48.2818 111.047 49.3184 109.619 49.9634C108.191 50.6084 106.694 50.9309 105.127 50.9309ZM112.245 26.813C109.158 26.1219 105.588 25.7764 101.534 25.7764V24.187C104.436 24.187 108.076 23.9566 112.452 23.4959C112.591 23.4959 112.706 23.6572 112.798 23.9797C112.89 24.3022 112.936 24.6707 112.936 25.0854C112.936 25.5 112.867 25.9146 112.729 26.3293C112.591 26.6978 112.429 26.8591 112.245 26.813Z" fill="#216037"/>
<path d="M128.063 50.8618C125.206 50.8618 122.811 49.8252 120.876 47.752C118.941 45.6328 117.973 42.6843 117.973 38.9065C117.973 35.5894 118.733 32.687 120.254 30.1992C121.82 27.7114 123.801 25.8225 126.197 24.5325C128.639 23.1965 131.126 22.5285 133.66 22.5285C135.273 22.5285 136.816 22.8279 138.29 23.4268C139.765 24.0257 141.009 24.855 142.022 25.9146L138.498 29.9228C138.498 28.2182 137.853 26.79 136.563 25.6382C135.273 24.4864 133.729 23.9106 131.933 23.9106C129.353 23.9106 127.256 25.1084 125.644 27.5041C124.078 29.8997 123.294 32.9864 123.294 36.7642C123.294 40.2195 123.962 42.9837 125.298 45.0569C126.635 47.1301 128.454 48.1667 130.758 48.1667C133.476 48.1667 136.448 46.5081 139.672 43.1911L140.225 43.6748C138.198 45.8862 136.24 47.6369 134.351 48.9268C132.509 50.2168 130.412 50.8618 128.063 50.8618ZM140.433 50.8618C139.972 50.8618 139.534 50.2629 139.12 49.065C138.705 47.8672 138.498 46.3469 138.498 44.5041V25.2236C139.603 24.855 140.433 24.5095 140.986 24.187C141.538 23.8645 142.045 23.3808 142.506 22.7358C142.552 22.6897 142.621 22.6667 142.713 22.6667C142.805 22.6667 142.897 22.7127 142.99 22.8049C143.128 22.8509 143.197 22.897 143.197 22.9431V42.7073C143.197 44.1816 143.358 45.2412 143.681 45.8862C144.049 46.5312 144.648 46.8536 145.477 46.8536C146.076 46.8536 147.205 46.5542 148.864 45.9553L149.002 45.8862C149.14 45.8862 149.232 46.0014 149.278 46.2317C149.37 46.4621 149.347 46.6003 149.209 46.6463L140.709 50.7927L140.433 50.8618Z" fill="#216037"/>
<path d="M26.3622 4.48837C26.3825 4.29816 26.6593 4.29816 26.6796 4.48838L27.0415 7.88317C27.181 9.19097 27.7283 10.2133 28.4279 10.4732L30.6399 11.2962C30.7784 11.3477 30.7784 11.5437 30.6399 11.5953L28.4279 12.4183C27.7279 12.6789 27.1806 13.7012 27.0415 15.0083L26.6796 18.4031C26.6593 18.5933 26.3825 18.5933 26.3622 18.4031L26.0003 15.0083C25.8608 13.7005 25.3136 12.6782 24.6139 12.4183L22.402 11.5953C22.2634 11.5437 22.2634 11.3477 22.402 11.2962L24.6139 10.4732C25.314 10.2125 25.8612 9.19021 26.0003 7.88317L26.3622 4.48837Z" fill="#216037"/>
</svg>
