<svg width="36" height="26" viewBox="0 0 36 26" fill="none" xmlns="http://www.w3.org/2000/svg">
<path fill-rule="evenodd" clip-rule="evenodd" d="M7.05542 3.50767H28.2217C28.8096 3.50767 29.3623 3.64797 29.8491 3.90286L19.4024 11.6922C18.8935 12.0717 18.2746 12.2768 17.6386 12.2768C17.0025 12.2768 16.3836 12.0717 15.8747 11.6922L5.42797 3.90286C5.9148 3.64797 6.46982 3.50767 7.05542 3.50767ZM3.53006 6.87035L3.52771 7.01533V18.7076C3.52771 19.6378 3.89938 20.53 4.56095 21.1879C5.22253 21.8457 6.11981 22.2152 7.05542 22.2152H28.2217C29.1573 22.2152 30.0546 21.8457 30.7162 21.1879C31.3777 20.53 31.7494 19.6378 31.7494 18.7076V7.01533L31.747 6.87035L21.519 14.4984C20.3995 15.3332 19.0379 15.7845 17.6386 15.7845C16.2392 15.7845 14.8776 15.3332 13.7581 14.4984L3.53006 6.87035ZM0 7.01533C0 5.15475 0.743337 3.37037 2.06649 2.05474C3.38963 0.739114 5.18421 0 7.05542 0H28.2217C30.0929 0 31.8875 0.739114 33.2106 2.05474C34.5338 3.37037 35.2771 5.15475 35.2771 7.01533V18.7076C35.2771 20.5681 34.5338 22.3525 33.2106 23.6681C31.8875 24.9838 30.0929 25.7229 28.2217 25.7229H7.05542C5.18421 25.7229 3.38963 24.9838 2.06649 23.6681C0.743337 22.3525 0 20.5681 0 18.7076V7.01533Z" fill="#216037"/>
</svg>
