<svg width="887" height="700" viewBox="0 0 887 700" fill="none" xmlns="http://www.w3.org/2000/svg">
<rect width="887" height="700" rx="45" fill="#C2D59D"/>
<mask id="mask0_155_204" style="mask-type:alpha" maskUnits="userSpaceOnUse" x="0" y="0" width="887" height="700">
<rect width="887" height="700" rx="45" fill="#CBD1BA"/>
</mask>
<g mask="url(#mask0_155_204)">
<path d="M304.205 -2C341.038 44.7491 343.871 135.414 273.039 230.329C202.207 325.244 -15.9551 458.408 53.4602 574.572C122.876 690.737 418.953 638.321 543.618 574.572C668.282 510.823 767.447 363.493 815.612 335.16C863.778 306.827 892.111 335.16 892.111 335.16" stroke="#40683D" stroke-width="25.333" stroke-linecap="square" stroke-linejoin="round"/>
<path d="M304.205 -2C341.038 44.7491 343.871 135.414 273.039 230.329C202.207 325.244 -15.9551 458.408 53.4602 574.572C122.876 690.737 418.953 638.321 543.618 574.572C668.282 510.823 767.447 363.493 815.612 335.16C863.778 306.827 892.111 335.16 892.111 335.16" stroke="#EFEDE5" stroke-width="20.727" stroke-linecap="square" stroke-linejoin="round"/>
<path d="M664.033 356.323C688.588 349.712 744.498 324.591 771.698 276.991" stroke="#40683D" stroke-width="2.303" stroke-linecap="square" stroke-linejoin="round"/>
<path d="M388.5 466.5C404.083 477.833 420.865 497.301 354 541.5" stroke="#40683D" stroke-width="2.303" stroke-linecap="round"/>
<path d="M644.465 370.933C644.465 410.199 612.634 442.03 573.368 442.03C534.102 442.03 502.271 410.199 502.271 370.933C502.271 331.667 534.102 299.836 573.368 299.836C612.634 299.836 644.465 331.667 644.465 370.933Z" fill="#EFEDE5" stroke="#40683D" stroke-width="2.303"/>
<circle cx="778.781" cy="229.799" r="47.0142" fill="#EFEDE5" stroke="#40683D" stroke-width="2.303"/>
<circle cx="509.619" cy="90.082" r="47.0142" fill="#EFEDE5" stroke="#40683D" stroke-width="2.303"/>
<circle cx="172.459" cy="115.581" r="47.0142" fill="#EFEDE5" stroke="#40683D" stroke-width="2.303"/>
<circle cx="331.123" cy="420.958" r="47.0142" fill="#EFEDE5" stroke="#40683D" stroke-width="2.303"/>
<circle cx="177.984" cy="567.001" r="47.0142" fill="#EFEDE5" stroke="#40683D" stroke-width="2.303"/>
<circle cx="716.447" cy="597.508" r="47.0142" fill="#EFEDE5" stroke="#40683D" stroke-width="2.303"/>
<circle cx="121.459" cy="192.966" r="21.5147" fill="#EFEDE5" stroke="#40683D" stroke-width="2.303"/>
<path d="M484.161 360.164L501.075 361.868" stroke="#40683D" stroke-width="2.303" stroke-linecap="square"/>
<path d="M622.95 423.791L634.724 436.053" stroke="#40683D" stroke-width="2.303" stroke-linecap="square"/>
<circle cx="573.368" cy="370.489" r="90.9301" stroke="#40683D" stroke-width="2.303"/>
<path d="M664 365C701.322 374.083 766.613 421.504 712.188 550" stroke="#40683D" stroke-width="2.303" stroke-linecap="square"/>
<path d="M226.291 566.872C287.679 564.983 431.137 537.122 513.869 440.791" stroke="#40683D" stroke-width="2.303" stroke-linecap="square"/>
<path d="M359.5 460C385 469 444.768 477.299 510.5 436.5" stroke="#40683D" stroke-width="2.303" stroke-linecap="round"/>
<path d="M190.876 160.383C235.508 258.32 287.207 255.298 339.623 239.715C392.039 224.132 453.439 246.997 511.036 303.464" stroke="#40683D" stroke-width="2.303" stroke-linecap="square" stroke-linejoin="round"/>
<path d="M546.452 120.274C547.869 121.69 617.284 186.856 596.035 281.771" stroke="#40683D" stroke-width="2.303" stroke-linecap="square" stroke-linejoin="round"/>
<path d="M591.784 194.383C613.506 241.132 667.735 303.4 755 300" stroke="#40683D" stroke-width="2.303" stroke-linecap="round" stroke-linejoin="round"/>
<path d="M304.205 -2C341.038 44.7491 343.871 135.414 273.039 230.329C202.207 325.244 -15.9551 458.408 53.4602 574.572C122.876 690.737 418.953 638.321 543.618 574.572C668.282 510.823 767.447 363.493 815.612 335.16C863.778 306.827 892.111 335.16 892.111 335.16" stroke="#40683D" stroke-width="25.333" stroke-linecap="square" stroke-linejoin="round"/>
<path d="M304.205 -2C341.038 44.7491 343.871 135.414 273.039 230.329C202.207 325.244 -15.9551 458.408 53.4602 574.572C122.876 690.737 418.953 638.321 543.618 574.572C668.282 510.823 767.447 363.493 815.612 335.16C863.778 306.827 892.111 335.16 892.111 335.16" stroke="#EFEDE5" stroke-width="20.727" stroke-linecap="square" stroke-linejoin="round"/>
<path d="M562.159 397.263V344.939L562.896 344.202H579.477C584.292 344.202 588.247 345.651 591.342 348.55C594.487 351.4 596.059 355.109 596.059 359.678C596.059 364.247 594.487 367.981 591.342 370.88C588.247 373.729 584.292 375.154 579.477 375.154H569.897V397.263L569.16 398H562.896L562.159 397.263ZM569.897 367.785H579.846C582.204 367.785 584.194 367.097 585.815 365.721C587.486 364.296 588.321 362.282 588.321 359.678C588.321 357.074 587.486 355.084 585.815 353.709C584.194 352.284 582.204 351.571 579.846 351.571H569.897V367.785Z" fill="#40683D"/>
<path d="M169.023 559.683L176.854 548.629H181.46L181.92 549.089V577.646H189.29L189.75 578.107V581.792L189.29 582.252H169.484L169.023 581.792V578.107L169.484 577.646H177.314V555.077L174.09 560.144L173.629 560.604H169.023V559.683Z" fill="#40683D"/>
<path d="M319.649 413.838V412.916C319.649 409.938 320.601 407.512 322.505 405.639C324.439 403.735 326.865 402.783 329.782 402.783C332.638 402.783 335.079 403.72 337.106 405.593C339.132 407.466 340.146 409.907 340.146 412.916C340.146 416.11 338.687 419.027 335.77 421.668C334.45 422.865 332.715 424.293 330.565 425.951C328.446 427.61 326.942 428.884 326.051 429.774C325.192 430.665 324.762 431.494 324.762 432.262H339.501L339.915 432.722V436.407L339.501 436.868H319.649L319.188 436.407V434.565C319.188 433.121 319.649 431.663 320.57 430.189C321.522 428.684 322.551 427.441 323.656 426.458C324.792 425.475 326.312 424.201 328.216 422.635C330.151 421.069 331.594 419.825 332.546 418.904C334.542 417.031 335.54 415.035 335.54 412.916C335.54 411.166 334.972 409.784 333.836 408.771C332.73 407.727 331.379 407.205 329.782 407.205C328.216 407.205 326.896 407.712 325.821 408.725C324.777 409.738 324.255 411.135 324.255 412.916V413.838L323.794 414.298H320.11L319.649 413.838Z" fill="#40683D"/>
<path d="M710.6 592.431H715.62C719.152 592.431 721.992 593.475 724.142 595.563C726.322 597.62 727.412 600.414 727.412 603.946C727.412 607.2 726.337 609.933 724.188 612.144C722.038 614.355 719.351 615.461 716.127 615.461C712.934 615.461 710.247 614.34 708.067 612.098C705.917 609.826 704.842 607.108 704.842 603.946L705.303 603.485H708.988L709.448 603.946C709.448 605.911 710.078 607.554 711.337 608.874C712.596 610.194 714.193 610.855 716.127 610.855C718.092 610.855 719.689 610.225 720.917 608.966C722.176 607.676 722.806 606.003 722.806 603.946C722.806 601.704 722.146 600 720.825 598.833C719.536 597.635 717.816 597.037 715.667 597.037H708.527L708.067 596.576L706.224 592.431V591.97L710.139 581.837L710.6 581.376H725.569L726.03 581.837V585.522L725.569 585.982H713.133L710.6 592.431Z" fill="#40683D"/>
<path d="M773.578 212.469L773.992 212.009H778.138V212.93L772.38 230.064H779.98V219.378L780.441 218.918H784.125L784.586 219.378V230.064H787.81L788.271 230.525V234.118L787.856 234.578H784.586V245.172L784.125 245.633H780.441L779.98 245.172V234.578H768.004L767.544 234.118V230.11L773.578 212.469Z" fill="#216037"/>
<path d="M520.714 72.8282V76.9736L511.502 84.896C514.389 85.0802 516.722 86.1856 518.503 88.2123C520.284 90.2082 521.175 92.6801 521.175 95.6279C521.175 98.453 520.162 100.971 518.135 103.182C516.139 105.362 513.544 106.452 510.351 106.452C507.219 106.452 504.624 105.408 502.567 103.32C500.54 101.201 499.527 98.714 499.527 95.8582L499.987 95.3976H503.672L504.087 95.8582C504.087 97.6085 504.67 99.0824 505.837 100.28C507.034 101.478 508.539 102.076 510.351 102.076C512.162 102.076 513.652 101.447 514.819 100.188C515.985 98.9289 516.569 97.4089 516.569 95.6279C516.569 93.6013 515.878 91.9892 514.496 90.7916C513.145 89.5634 511.456 88.9492 509.43 88.9492H505.975L505.514 88.4886V84.8038L514.312 76.9736H500.448L499.987 76.513V72.8282L500.448 72.3676H520.254L520.714 72.8282Z" fill="#40683D"/>
<path d="M171.349 130.276C173.192 130.276 174.681 129.677 175.817 128.48C176.984 127.252 177.568 125.716 177.568 123.874C177.568 122.031 176.984 120.511 175.817 119.314C174.681 118.086 173.192 117.471 171.349 117.471C169.476 117.471 167.926 118.055 166.697 119.222C165.469 120.389 164.855 121.939 164.855 123.874C164.855 125.624 165.484 127.129 166.743 128.388C168.002 129.647 169.538 130.276 171.349 130.276ZM159.834 117.425C159.834 114.815 160.049 112.282 160.479 109.825C161.001 106.939 162.245 104.605 164.21 102.824C166.206 101.043 168.586 100.153 171.349 100.153C174.174 100.153 176.524 101.013 178.397 102.732C180.3 104.421 181.252 106.632 181.252 109.365L180.792 109.825H177.107L176.646 109.365C176.646 107.83 176.124 106.647 175.08 105.818C174.067 104.958 172.823 104.529 171.349 104.529C168.002 104.529 165.853 106.294 164.901 109.825C164.318 111.883 164.087 114.032 164.21 116.274C166.206 114.124 168.663 113.05 171.58 113.05C174.804 113.05 177.368 114.109 179.272 116.228C181.206 118.316 182.174 120.865 182.174 123.874C182.174 126.852 181.176 129.401 179.18 131.52C177.184 133.639 174.574 134.698 171.349 134.698C168.524 134.698 166.083 133.792 164.026 131.98C161.999 130.138 160.756 127.82 160.295 125.025C159.988 123.275 159.834 120.742 159.834 117.425Z" fill="#40683D"/>
<path d="M134.209 174.55L147 154.5" stroke="#40683D" stroke-width="2.303"/>
<path d="M235.129 242.138C234.292 241.501 234.161 240.31 234.824 239.522C235.391 238.847 235.965 238.171 236.541 237.491C241.636 231.484 246.936 225.234 249.915 217.929C250.514 216.461 252.334 216.031 253.351 216.911C265.748 227.633 277.662 237.217 293.683 241.522C294.802 241.822 295.363 242.92 295.024 243.838C291.737 252.751 286.176 259.857 280.655 266.913L280.446 267.18C279.981 267.775 279.22 268.018 278.534 267.811C262.462 262.963 249.343 252.968 235.482 242.407C235.364 242.318 235.247 242.228 235.129 242.138Z" fill="#EFEDE5" stroke="#40683D" stroke-width="2.303"/>
<path d="M751.15 442.676C751.508 443.665 750.972 444.737 749.988 445.04C749.145 445.299 748.296 445.556 747.443 445.815C739.906 448.099 732.063 450.476 725.598 454.997C724.299 455.906 722.537 455.28 722.16 453.99C717.558 438.258 712.746 423.746 701.619 411.44C700.843 410.581 700.967 409.354 701.749 408.766C709.344 403.061 717.87 400.106 726.336 397.172L726.656 397.061C727.369 396.814 728.141 397.022 728.605 397.567C739.479 410.357 745.081 425.869 751 442.259C751.05 442.398 751.1 442.537 751.15 442.676Z" fill="#EFEDE5" stroke="#40683D" stroke-width="2.303"/>
</g>
</svg>
