<svg width="48" height="48" viewBox="0 0 48 48" fill="none" xmlns="http://www.w3.org/2000/svg">
<path fill-rule="evenodd" clip-rule="evenodd" d="M41.5629 25.9151L25.4071 42.0581C24.7883 42.6761 23.9502 43.025 23.0752 43.0287C22.2002 43.0324 21.3592 42.6907 20.7352 42.078L5.96963 27.5923C5.34227 26.976 4.98564 26.136 4.97818 25.257C4.97071 24.378 5.31302 23.5321 5.92981 22.9052L22.0823 6.46385C22.5452 5.99205 23.0976 5.61714 23.7072 5.36103C24.3168 5.10491 24.9714 4.97273 25.6327 4.97219H39.7048C40.5848 4.97219 41.4287 5.32143 42.051 5.94307C42.6733 6.56472 43.0229 7.40785 43.0229 8.28699V22.3981C43.0227 23.0514 42.8937 23.6982 42.6432 24.3017C42.3927 24.9052 42.0256 25.4534 41.5629 25.9151ZM18.5286 2.97669C19.4554 2.03389 20.561 1.28507 21.7807 0.773975C23.0005 0.262882 24.31 -0.000234895 25.6327 1.57347e-07H39.7048C41.9048 1.57347e-07 44.0147 0.873091 45.5704 2.4272C47.126 3.98131 48 6.08914 48 8.28699V22.3981C48.0002 23.7044 47.7427 24.998 47.2422 26.205C46.7418 27.4119 46.0082 28.5085 45.0834 29.4321L28.9242 45.5751C27.3774 47.1192 25.2829 47.9906 23.0963 47.9999C20.9097 48.0092 18.8078 47.1556 17.2479 45.6248L2.48231 31.1392C0.913023 29.5992 0.0202521 27.4997 0.000340315 25.3022C-0.0195715 23.1048 0.835007 20.9894 2.37613 19.4214L18.5286 2.98331V2.97669ZM33.0686 18.2314C31.9685 18.2314 30.9136 17.7948 30.1357 17.0178C29.3579 16.2407 28.9209 15.1868 28.9209 14.0879C28.9209 12.989 29.3579 11.935 30.1357 11.158C30.9136 10.3809 31.9685 9.94438 33.0686 9.94438C34.1686 9.94438 35.2235 10.3809 36.0014 11.158C36.7792 11.935 37.2162 12.989 37.2162 14.0879C37.2162 15.1868 36.7792 16.2407 36.0014 17.0178C35.2235 17.7948 34.1686 18.2314 33.0686 18.2314Z" fill="#216037"/>
</svg>
